<?xml version="1.0" encoding="utf-8"?>
<!-- Generator: Adobe Illustrator 26.5.0, SVG Export Plug-In . SVG Version: 6.00 Build 0)  -->
<svg version="1.1" id="Layer_1" xmlns="http://www.w3.org/2000/svg" xmlns:xlink="http://www.w3.org/1999/xlink" x="0px" y="0px"
	 viewBox="0 0 130.2 40" style="enable-background:new 0 0 130.2 40;" xml:space="preserve">
<style type="text/css">
	.st0{fill:url(#SVGID_1_);enable-background:new    ;}
	.st1{fill:#FFFFFF;}
</style>
<linearGradient id="SVGID_1_" gradientUnits="userSpaceOnUse" x1="6.9432" y1="37.0184" x2="35.3204" y2="13.2433">
	<stop  offset="0" style="stop-color:#ED8AF8"/>
	<stop  offset="1" style="stop-color:#2CA6E2"/>
</linearGradient>
<path class="st0" d="M38.5,32.1L24.2,3.6c-1.6-3.1-6-3.1-7.5,0L2.4,32.1c-1.8,3.5,1.8,7.3,5.4,5.8l6.6-2.8c1.1,1,3.7,3.2,6,3.2
	s4.9-2.2,6-3.2l6.6,2.8C36.7,39.4,40.2,35.6,38.5,32.1z M20.4,36c-1,0-2.6-1-3.7-1.9l3.7-1.6l3.8,1.6C23,35.1,21.5,36,20.4,36z
	 M34.1,35.5l-12.3-5.3V19.4c0-0.7-0.6-1.3-1.3-1.3c-0.7,0-1.3,0.6-1.3,1.3v10.8L6.8,35.5c-1.4,0.6-2.8-0.9-2.1-2.2L19,4.7
	c0.6-1.2,2.3-1.2,2.9,0l14.3,28.6C36.8,34.6,35.5,36.1,34.1,35.5z"/>
<g>
	<path class="st1" d="M60.4,29c-0.1,0.2-0.1,0.3-0.2,0.4c-0.1,0.1-0.2,0.2-0.4,0.2c-0.2,0.1-0.4,0.1-0.7,0.1c-0.3,0-0.7,0-1.2,0
		c-0.4,0-0.8,0-1,0s-0.5,0-0.7,0c-0.2,0-0.4-0.1-0.5-0.1c-0.1,0-0.2-0.1-0.3-0.2c-0.1-0.1-0.2-0.1-0.2-0.2c0-0.1-0.1-0.2-0.1-0.3
		L49,11.4c-0.1-0.4-0.2-0.7-0.2-0.9c0-0.2,0-0.4,0.2-0.5c0.1-0.1,0.3-0.2,0.6-0.2s0.7,0,1.3,0c0.5,0,0.8,0,1.1,0
		c0.3,0,0.5,0.1,0.6,0.1c0.1,0.1,0.2,0.1,0.3,0.2c0.1,0.1,0.1,0.2,0.2,0.4l4.8,15.2h0l4.7-15.2c0-0.2,0.1-0.3,0.2-0.4
		c0.1-0.1,0.2-0.2,0.3-0.3s0.4-0.1,0.6-0.1c0.3,0,0.7,0,1.1,0c0.5,0,0.8,0,1.1,0c0.3,0,0.4,0.1,0.5,0.2c0.1,0.1,0.1,0.3,0.1,0.5
		c0,0.2-0.1,0.5-0.2,0.9L60.4,29z"/>
	<path class="st1" d="M83.6,28.2c0.1,0.4,0.2,0.7,0.2,0.9s0,0.4-0.1,0.5c-0.1,0.1-0.3,0.2-0.6,0.2s-0.7,0-1.2,0c-0.5,0-0.9,0-1.2,0
		c-0.3,0-0.5,0-0.7-0.1c-0.2,0-0.3-0.1-0.3-0.2c-0.1-0.1-0.1-0.2-0.2-0.3l-1.3-4h-7.4L69.6,29c0,0.1-0.1,0.3-0.2,0.4
		c-0.1,0.1-0.2,0.2-0.3,0.2s-0.4,0.1-0.6,0.1c-0.3,0-0.6,0-1.1,0c-0.5,0-0.8,0-1.1,0s-0.4-0.1-0.5-0.2s-0.1-0.3-0.1-0.5
		c0-0.2,0.1-0.5,0.2-0.9L72,10.6c0.1-0.2,0.1-0.3,0.2-0.4c0.1-0.1,0.2-0.2,0.4-0.2c0.2-0.1,0.4-0.1,0.7-0.1c0.3,0,0.7,0,1.3,0
		c0.6,0,1.1,0,1.4,0c0.4,0,0.6,0.1,0.8,0.1c0.2,0.1,0.3,0.1,0.4,0.3c0.1,0.1,0.2,0.3,0.2,0.5L83.6,28.2z M74.5,13.7L74.5,13.7
		l-2.8,8.4h5.6L74.5,13.7z"/>
	<path class="st1" d="M97.2,28c0,0.3,0,0.6,0,0.8c0,0.2-0.1,0.4-0.1,0.5c-0.1,0.1-0.1,0.2-0.2,0.3c-0.1,0.1-0.2,0.1-0.3,0.1h-9.1
		c-0.3,0-0.6-0.1-0.8-0.3c-0.2-0.2-0.3-0.5-0.3-1V10.5c0-0.1,0-0.2,0.1-0.3c0.1-0.1,0.2-0.1,0.3-0.2c0.2-0.1,0.4-0.1,0.6-0.1
		c0.3,0,0.6,0,1,0c0.4,0,0.7,0,1,0c0.3,0,0.5,0.1,0.6,0.1c0.2,0.1,0.3,0.1,0.3,0.2c0.1,0.1,0.1,0.2,0.1,0.3v15.9h6.2
		c0.1,0,0.2,0,0.3,0.1s0.1,0.1,0.2,0.3c0.1,0.1,0.1,0.3,0.1,0.5C97.2,27.4,97.2,27.7,97.2,28z"/>
	<path class="st1" d="M103.6,29.1c0,0.1,0,0.2-0.1,0.3c-0.1,0.1-0.2,0.1-0.3,0.2c-0.2,0.1-0.4,0.1-0.6,0.1c-0.3,0-0.6,0-1,0
		c-0.4,0-0.7,0-1,0s-0.5-0.1-0.6-0.1c-0.2-0.1-0.3-0.1-0.3-0.2c-0.1-0.1-0.1-0.2-0.1-0.3V10.5c0-0.1,0-0.2,0.1-0.3
		c0.1-0.1,0.2-0.1,0.3-0.2c0.2-0.1,0.4-0.1,0.6-0.1c0.3,0,0.6,0,1,0c0.4,0,0.7,0,1,0c0.3,0,0.5,0.1,0.6,0.1c0.2,0.1,0.3,0.1,0.3,0.2
		c0.1,0.1,0.1,0.2,0.1,0.3V29.1z"/>
	<path class="st1" d="M119.6,23.7c0,1-0.2,2-0.6,2.7c-0.4,0.8-0.9,1.4-1.6,2c-0.7,0.5-1.4,0.9-2.3,1.2s-1.8,0.4-2.8,0.4
		c-0.7,0-1.3-0.1-1.9-0.2c-0.6-0.1-1.1-0.2-1.5-0.4c-0.4-0.2-0.8-0.3-1.1-0.5c-0.3-0.2-0.5-0.3-0.6-0.5c-0.1-0.1-0.2-0.3-0.3-0.6
		c-0.1-0.2-0.1-0.6-0.1-1.1c0-0.3,0-0.6,0-0.8s0.1-0.4,0.1-0.5c0-0.1,0.1-0.2,0.2-0.3c0.1-0.1,0.2-0.1,0.3-0.1
		c0.1,0,0.3,0.1,0.6,0.3s0.6,0.4,1,0.6c0.4,0.2,0.9,0.4,1.5,0.6c0.6,0.2,1.2,0.3,2,0.3c0.5,0,0.9-0.1,1.3-0.2s0.7-0.3,1-0.5
		c0.3-0.2,0.5-0.5,0.6-0.8s0.2-0.7,0.2-1.1c0-0.4-0.1-0.8-0.4-1.2c-0.2-0.3-0.6-0.6-1-0.9s-0.8-0.5-1.3-0.7s-1-0.5-1.5-0.7
		s-1-0.5-1.5-0.8c-0.5-0.3-0.9-0.7-1.3-1.1c-0.4-0.4-0.7-0.9-1-1.5c-0.2-0.6-0.4-1.3-0.4-2.1c0-0.9,0.2-1.8,0.5-2.5
		c0.4-0.7,0.8-1.3,1.4-1.8c0.6-0.5,1.3-0.8,2.1-1.1c0.8-0.2,1.7-0.4,2.6-0.4c0.5,0,0.9,0,1.4,0.1c0.5,0.1,0.9,0.2,1.3,0.3
		c0.4,0.1,0.8,0.3,1.1,0.4c0.3,0.2,0.5,0.3,0.6,0.4c0.1,0.1,0.2,0.2,0.2,0.3c0,0.1,0.1,0.2,0.1,0.3s0,0.3,0.1,0.4c0,0.2,0,0.4,0,0.7
		c0,0.3,0,0.5,0,0.7c0,0.2,0,0.4-0.1,0.5c0,0.1-0.1,0.2-0.2,0.3c-0.1,0.1-0.2,0.1-0.3,0.1s-0.3-0.1-0.5-0.2s-0.5-0.3-0.9-0.5
		s-0.8-0.3-1.2-0.5c-0.5-0.1-1-0.2-1.5-0.2c-0.4,0-0.8,0.1-1.1,0.2c-0.3,0.1-0.6,0.3-0.8,0.4c-0.2,0.2-0.4,0.4-0.5,0.7
		s-0.2,0.5-0.2,0.8c0,0.4,0.1,0.8,0.4,1.1c0.2,0.3,0.6,0.6,1,0.9s0.9,0.5,1.4,0.7c0.5,0.2,1,0.5,1.6,0.7c0.5,0.2,1,0.5,1.6,0.8
		c0.5,0.3,1,0.7,1.4,1.1s0.7,0.9,1,1.5C119.5,22.3,119.6,22.9,119.6,23.7z"/>
</g>
</svg>
